<svg width="219" height="64" viewBox="0 0 219 64" fill="none" xmlns="http://www.w3.org/2000/svg">
<g clip-path="url(#clip0)">
<path d="M77.3303 11.9515C76.3722 11.2252 74.8088 11.1501 74.0675 11.1501H72.6857V18.1226H74.0322C75.1063 18.1226 76.5537 18.0124 77.5623 17.0206C77.8811 16.689 78.13 16.2976 78.2945 15.8693C78.459 15.4409 78.5359 14.9843 78.5205 14.5261C78.544 14.0337 78.4482 13.5429 78.2411 13.0949C78.034 12.6468 77.7217 12.2547 77.3303 11.9515Z" fill="white"/>
<path d="M47.7174 11.5208H46.144V27.0487H47.7174C48.9479 27.0487 51.6359 26.9335 53.5522 25.3356C54.934 24.1885 56.0738 22.0197 56.0738 19.1946C56.1138 18.1821 55.9473 17.172 55.5841 16.2252C55.221 15.2783 54.6688 14.4141 53.9607 13.6847C52.0192 11.7963 49.5228 11.5208 47.7174 11.5208Z" fill="white"/>
<path d="M10.9031 24.2636C10.9195 23.8827 10.8553 23.5027 10.7145 23.1481C10.5738 22.7935 10.3597 22.4722 10.0862 22.2049C9.0473 21.2481 7.06034 21.2481 5.86513 21.2481H4.26648V27.4242H5.68862C7.20154 27.4242 8.98679 27.3892 10.061 26.4224C10.3479 26.1428 10.5715 25.8056 10.7168 25.4333C10.862 25.061 10.9256 24.6622 10.9031 24.2636Z" fill="white"/>
<path d="M8.22024 16.1791C8.56013 15.9128 8.83121 15.5699 9.011 15.1788C9.1908 14.7876 9.27412 14.3596 9.25407 13.93C9.26792 13.5205 9.18372 13.1135 9.00838 12.7425C8.83304 12.3716 8.57157 12.0473 8.24545 11.7962C7.40326 11.1501 6.22823 11.1501 5.17927 11.1501H4.26648V16.9054H5.22466C6.05172 16.9054 7.373 16.7902 8.22024 16.1791Z" fill="white"/>
<path d="M101.92 11.4155C100.868 11.3811 99.8198 11.5636 98.8419 11.9514C97.864 12.3393 96.9776 12.9241 96.2386 13.669C95.4995 14.4139 94.9237 15.3028 94.5476 16.2796C94.1715 17.2564 94.0031 18.3001 94.0531 19.3447C94.02 20.4046 94.2111 21.4596 94.6142 22.4414C95.0173 23.4233 95.6233 24.3103 96.3931 25.045C97.1179 25.7423 97.9759 26.2886 98.9164 26.6516C99.857 27.0146 100.861 27.1871 101.87 27.1588C102.915 27.196 103.957 27.0225 104.933 26.6489C105.909 26.2753 106.799 25.7092 107.548 24.9849C108.557 24.0331 109.772 22.2399 109.772 19.3046C109.822 17.1822 109.023 15.1267 107.548 13.5894C106.019 12.1805 104.006 11.4031 101.92 11.4155Z" fill="white"/>
<path d="M161.554 58.5602L181.374 47.2249L202.227 59.1413L211.607 53.7766L219.02 58.0193V0H0V6.57682H6.26348C7.64528 6.57682 10.8022 6.65195 12.7842 8.52031C14.4332 10.0831 14.6249 12.217 14.6249 13.3239C14.6608 14.4603 14.3686 15.5831 13.7827 16.5598C13.2805 17.3901 12.5293 18.0434 11.6343 18.4281C12.9581 18.6357 14.1882 19.2344 15.1645 20.1462C16.0117 20.9827 16.8136 22.4303 16.8136 24.6793C16.8477 25.6288 16.6864 26.5752 16.3396 27.4606C15.9927 28.346 15.4676 29.1518 14.7963 29.8286C12.6833 31.8322 9.61207 31.9975 8.03864 31.9975H0V63.759H129.94L150.566 52.2739L161.554 58.5602ZM34.7971 11.5207H26.2239V16.4395H34.3836V21.3934H26.2491V27.0486H34.7971V32.0025H20.3387V6.57682H34.7971V11.5207ZM58.6105 28.1756C55.0803 31.722 50.6626 31.9875 48.5243 31.9875H40.2386V6.57682H48.3075C51.6863 6.57682 55.2568 7.07772 58.3936 10.0831C60.6579 12.257 62.075 15.2274 62.075 19.1895C62.075 23.1516 60.7285 26.0919 58.6205 28.1856L58.6105 28.1756ZM79.5845 31.9875L72.6756 21.9695V31.9875H66.7752V6.57682H75.7569C79.0197 6.57682 81.0521 7.64374 82.2826 8.78579C83.0242 9.53152 83.6042 10.4203 83.9867 11.3972C84.3692 12.3741 84.5461 13.4185 84.5066 14.466C84.548 15.4215 84.3902 16.3753 84.0431 17.2674C83.696 18.1595 83.167 18.9708 82.4894 19.6503C81.4866 20.5888 80.2595 21.2577 78.9239 21.5938L86.7911 31.9975L79.5845 31.9875ZM111.86 28.8268C109.48 31.1209 106.257 32.5585 101.961 32.5585C97.1647 32.5585 93.8917 30.6551 91.9804 28.8268C90.7048 27.6024 89.6933 26.1331 89.0075 24.5081C88.3218 22.8832 87.976 21.1367 87.9913 19.3748C88.0309 15.7776 89.4441 12.3295 91.9451 9.72748C93.6698 8.0144 96.857 6.0108 101.961 6.0108C105.95 6.0108 109.288 7.22799 111.86 9.70744C113.143 10.958 114.157 12.4534 114.843 14.1036C115.528 15.7538 115.871 17.5247 115.849 19.3097C115.866 21.0829 115.521 22.841 114.835 24.4783C114.15 26.1156 113.138 27.5982 111.86 28.8368V28.8268ZM138.382 14.2005C137.63 13.3587 136.708 12.6827 135.677 12.216C134.646 11.7493 133.528 11.5022 132.395 11.4906C131.435 11.4598 130.477 11.6213 129.581 11.9655C128.684 12.3097 127.866 12.8296 127.176 13.4942C126.397 14.262 125.782 15.1772 125.366 16.1856C124.95 17.1941 124.743 18.2752 124.755 19.3648C124.714 20.3885 124.887 21.4096 125.261 22.3643C125.636 23.3189 126.205 24.1865 126.932 24.9128C127.66 25.6392 128.53 26.2086 129.489 26.5856C130.448 26.9626 131.476 27.139 132.506 27.1037C134.045 27.1037 136.117 26.6829 138.382 24.474V31.2011C136.642 32.1091 134.703 32.5755 132.738 32.5585C128.018 32.5585 124.831 30.9606 122.683 28.8619C121.399 27.6036 120.384 26.1012 119.699 24.4444C119.013 22.7877 118.671 21.0106 118.693 19.2195C118.679 17.4407 119.024 15.677 119.71 14.0335C120.395 12.3899 121.406 10.9 122.683 9.65234C125.272 7.23586 128.712 5.92321 132.264 5.99577C134.38 6.0414 136.464 6.52416 138.382 7.41332V14.2005ZM149.391 31.9975H143.48V6.57682H149.391V17.1709L158.14 6.57682H165.352L154.993 18.5984L166.159 31.9775H158.564L149.391 20.7172V31.9975Z" fill="white"/>
</g>
<defs>
<clipPath id="clip0">
<rect width="219" height="64" fill="white"/>
</clipPath>
</defs>
</svg>
