<svg xmlns="http://www.w3.org/2000/svg" width="360" height="100.84" viewBox="0 0 360 100.84"><g id="Layer_2" data-name="Layer 2"><g id="Layer_1-2" data-name="Layer 1"><path d="M50.42,100.84a50.42,50.42,0,1,1,50.42-50.42A50.48,50.48,0,0,1,50.42,100.84Zm0-92.73A42.32,42.32,0,1,0,92.73,50.42,42.36,42.36,0,0,0,50.42,8.11Z" style="fill:#f6921e"/><path d="M180,100.84a50.42,50.42,0,1,1,50.42-50.42A50.48,50.48,0,0,1,180,100.84Zm0-92.73a42.32,42.32,0,1,0,42.31,42.31A42.36,42.36,0,0,0,180,8.11Z" style="fill:#f6921e"/><path d="M309.58,100.84A50.42,50.42,0,1,1,360,50.42,50.48,50.48,0,0,1,309.58,100.84Zm0-92.73a42.32,42.32,0,1,0,42.31,42.31A42.36,42.36,0,0,0,309.58,8.11Z" style="fill:#f6921e"/><path d="M53,73.23c-8.24,0-8.24-6.22-8.24-12.79V43.52h-6V38.76h6V28.88a2.37,2.37,0,0,1,0-.3l.34-.06,6.18-.84.36,0,.29,0V38.76h9.3l0,.2-.93,4.22c0,.16-.06.27-.08.34H52V61.64c0,2.22,0,5.26,3.34,5.26a11.79,11.79,0,0,0,4.5-1c.31-.12.63-.25.86-.31L62,71.1a1.54,1.54,0,0,0,.07.29C61.4,72.08,57.5,73.23,53,73.23Z" style="fill:#232323"/><path d="M176.22,68.26c-6,0-9.74-3.84-9.74-10,0-11.08,11.9-11.08,17.62-11.08H185V44c0-3-.46-6.18-6-6.18a21.87,21.87,0,0,0-7.38,1.66c-.44.16-1,.35-1.25.43L169,35.5l0-.06a1.52,1.52,0,0,1-.12-.36c.64-.87,6.1-2.5,11.59-2.5,7.92,0,11.3,3.15,11.3,10.52V56.81c0,4.94.94,7,1.5,8.24a5.28,5.28,0,0,1,.31.77L188.14,68l-.38.14-.07,0a11.08,11.08,0,0,1-1.33-3.45L186,63l-1.47,1.48A10.75,10.75,0,0,1,176.22,68.26Zm6.65-17.14c-8,0-9.71,3.6-9.71,6.62a5.56,5.56,0,0,0,5.61,5.76c3,0,5.1-2.09,6-3l.27-.27V51.13h-2.16Z" style="fill:#232323"/><path d="M309.9,75.18c-5.2,0-12.72-1.94-13.79-3a3.39,3.39,0,0,1,.24-1s1.36-4.37,1.37-4.38l.94.38a26.38,26.38,0,0,0,10.46,2.35c5.61,0,6.74-2.67,6.74-7,0-1.75-.1-3.13-.16-4,0-.34,0-.59,0-.73V56.2L314,57.28a13.23,13.23,0,0,1-7.91,2.41c-7.13,0-11.22-6-11.22-16.41,0-11,4.67-17.62,12.5-17.62a10.12,10.12,0,0,1,7.48,2.79l.38.33,1,.85.44-1.26a7.73,7.73,0,0,1,1.68-2.71,2.51,2.51,0,0,1,.37.09l5.47,2c-.06.19-.17.45-.26.67a20,20,0,0,0-1.66,8.22V47.25c0,2.46.1,5.61.19,8.65.09,2.81.17,5.45.17,7.35C322.69,71.28,318.5,75.18,309.9,75.18Zm-.78-43.91c-4.67,0-7,3.94-7,11.72,0,2.83,0,11.45,6.62,11.45a9,9,0,0,0,6.5-2.52l.46-.41V33.87l-.6-.46A8.68,8.68,0,0,0,309.12,31.27Z" style="fill:#232323"/></g></g></svg>